<svg xmlns="http://www.w3.org/2000/svg" width="20" height="20" viewBox="0 0 48 48">
  <path fill="#EA4335" d="M24 9.5c3.5 0 6.6 1.2 9.1 3.2l6.8-6.8C35.8 2.2 30.3 0 24 0 14.6 0 6.6 5.4 2.7 13.3l7.9 6.1C12.5 13 17.8 9.5 24 9.5z"/>
  <path fill="#4285F4" d="M46.5 24.5c0-1.6-.1-3.1-.4-4.5H24v8.5h12.7c-.6 3-2.3 5.5-4.8 7.2l7.5 5.8c4.4-4.1 7.1-10.1 7.1-17z"/>
  <path fill="#FBBC05" d="M10.6 28.6A14.6 14.6 0 0 1 9.5 24c0-1.6.3-3.2.8-4.6l-7.9-6.1A24 24 0 0 0 0 24c0 3.9.9 7.6 2.7 10.8l7.9-6.2z"/>
  <path fill="#34A853" d="M24 48c6.3 0 11.6-2.1 15.4-5.7l-7.5-5.8c-2.1 1.4-4.7 2.2-7.9 2.2-6.2 0-11.5-4.2-13.4-9.9l-7.9 6.1C6.6 42.6 14.6 48 24 48z"/>
</svg>